<?xml version="1.0" encoding="UTF-8" standalone="no"?>
<!-- Created with Inkscape (http://www.inkscape.org/) -->
<svg id="svg2" xmlns:rdf="http://www.w3.org/1999/02/22-rdf-syntax-ns#" xmlns="http://www.w3.org/2000/svg" height="48" width="48" version="1.0" xmlns:cc="http://web.resource.org/cc/" xmlns:xlink="http://www.w3.org/1999/xlink" xmlns:dc="http://purl.org/dc/elements/1.1/">
 <defs id="defs4">
  <linearGradient id="linearGradient3100">
   <stop id="stop3102" stop-color="#eeeeec" offset="0"/>
   <stop id="stop3104" stop-color="#fff" offset="1"/>
  </linearGradient>
  <linearGradient id="linearGradient3075">
   <stop id="stop3077" offset="0"/>
   <stop id="stop3079" stop-opacity="0" offset="1"/>
  </linearGradient>
  <linearGradient id="linearGradient3255" y2="9.6829" xlink:href="#linearGradient3100" gradientUnits="userSpaceOnUse" x2="6.2186" gradientTransform="matrix(2.0835 0 0 1.9032 -.79438 15.548)" y1="4.0344" x1="6.2186"/>
  <radialGradient id="radialGradient3271" xlink:href="#linearGradient3075" gradientUnits="userSpaceOnUse" cy="18" cx="7.2188" gradientTransform="matrix(1 0 0 .55411 0 8.026)" r="7.2188"/>
 </defs>
 <metadata id="metadata7">
  <rdf:RDF>
   <cc:Work rdf:about="">
    <dc:format>image/svg+xml</dc:format>
    <dc:type rdf:resource="http://purl.org/dc/dcmitype/StillImage"/>
    <dc:creator>
     <cc:Agent>
      <dc:title>Lapo Calamandrei</dc:title>
     </cc:Agent>
    </dc:creator>
    <cc:license rdf:resource="http://creativecommons.org/licenses/GPL/2.0/"/>
    <dc:title>FAQ</dc:title>
    <dc:subject>
     <rdf:Bag>
      <rdf:li>help</rdf:li>
      <rdf:li>faq</rdf:li>
     </rdf:Bag>
    </dc:subject>
   </cc:Work>
   <cc:License rdf:about="http://creativecommons.org/licenses/GPL/2.0/">
    <cc:permits rdf:resource="http://web.resource.org/cc/Reproduction"/>
    <cc:permits rdf:resource="http://web.resource.org/cc/Distribution"/>
    <cc:requires rdf:resource="http://web.resource.org/cc/Notice"/>
    <cc:permits rdf:resource="http://web.resource.org/cc/DerivativeWorks"/>
    <cc:requires rdf:resource="http://web.resource.org/cc/ShareAlike"/>
    <cc:requires rdf:resource="http://web.resource.org/cc/SourceCode"/>
   </cc:License>
  </rdf:RDF>
 </metadata>
 <g id="layer1">
  <g id="g3312" opacity=".7">
   <g id="g3296" opacity=".6" transform="translate(-6,-15)">
    <path id="path3298" opacity=".15" d="m14.438 18a7.2188 4 0 1 1 -14.438 0 7.2188 4 0 1 1 14.438 0z" transform="matrix(2.0307 0 0 2.0614 5 1.5461)" fill="url(#radialGradient3271)"/>
    <path id="path3300" d="m11.837 16.5c-2.9588 0-5.3391 2.174-5.3391 4.877v11.181c0 2.703 2.3803 4.877 5.3391 4.877h5.078l13.543 8.565-2.669-8.862c2.119-0.646 3.711-2.421 3.711-4.58v-11.181c0-2.703-2.445-4.877-5.404-4.877h-14.259z" fill-rule="evenodd" stroke="#888a85" stroke-width="1px" fill="url(#linearGradient3255)"/>
    <path id="path3302" d="m11.938 17.5c-2.4547 0-4.3442 1.764-4.3442 3.875v11.187c0 2.112 1.8895 3.876 4.3442 3.876h5.031c0.188 0.001 0.372 0.055 0.531 0.156l11.219 7.125-1.875-6.313c-0.077-0.257-0.048-0.534 0.081-0.769 0.13-0.235 0.348-0.408 0.606-0.481 1.758-0.538 2.969-1.922 2.969-3.594v-11.187c0-2.103-1.921-3.875-4.375-3.875h-14.187z" transform="matrix(1.0042 0 0 1 -.12750 0)" stroke="#fff" stroke-width=".99792px" fill="none"/>
    <path id="path3304" opacity="1" d="m19.938 30.098h-1.816v-1.114c0-0.487 0.089-0.888 0.267-1.202 0.177-0.313 0.551-0.677 1.122-1.092l0.855-0.644c0.362-0.256 0.621-0.497 0.78-0.724 0.165-0.227 0.247-0.459 0.247-0.695 0-0.429-0.209-0.777-0.627-1.042-0.412-0.265-0.961-0.398-1.645-0.398-0.501 0-1.037 0.084-1.607 0.253-0.564 0.169-1.154 0.415-1.769 0.738v-1.36c0.596-0.275 1.198-0.48 1.807-0.615 0.615-0.135 1.249-0.203 1.902-0.203 1.166 0 2.101 0.234 2.804 0.702 0.71 0.468 1.065 1.086 1.065 1.853 0 0.366-0.114 0.716-0.342 1.049-0.228 0.328-0.628 0.7-1.198 1.115l-0.837 0.622c-0.298 0.227-0.51 0.405-0.637 0.536-0.12 0.125-0.206 0.248-0.257 0.369-0.038 0.101-0.066 0.224-0.085 0.369-0.019 0.144-0.029 0.342-0.029 0.593v0.89" fill="#729fcf"/>
    <path id="path3306" opacity="1" d="m18.065 31.162h1.93v1.838h-1.93v-1.838" fill="#729fcf"/>
   </g>
   <g id="g3280" transform="translate(16,-12)">
    <path id="path3282" opacity=".15" d="m14.438 18a7.2188 4 0 1 1 -14.438 0 7.2188 4 0 1 1 14.438 0z" transform="matrix(2.0307 0 0 2.0614 5 1.5461)" fill="url(#radialGradient3271)"/>
    <path id="path3284" d="m11.837 16.5c-2.9588 0-5.3391 2.174-5.3391 4.877v11.181c0 2.703 2.3803 4.877 5.3391 4.877h5.078l13.543 8.565-2.669-8.862c2.119-0.646 3.711-2.421 3.711-4.58v-11.181c0-2.703-2.445-4.877-5.404-4.877h-14.259z" fill-rule="evenodd" stroke="#888a85" stroke-width="1px" fill="url(#linearGradient3255)"/>
    <path id="path3286" d="m11.938 17.5c-2.4547 0-4.3442 1.764-4.3442 3.875v11.187c0 2.112 1.8895 3.876 4.3442 3.876h5.031c0.188 0.001 0.372 0.055 0.531 0.156l11.219 7.125-1.875-6.313c-0.077-0.257-0.048-0.534 0.081-0.769 0.13-0.235 0.348-0.408 0.606-0.481 1.758-0.538 2.969-1.922 2.969-3.594v-11.187c0-2.103-1.921-3.875-4.375-3.875h-14.187z" transform="matrix(1.0042 0 0 1 -.12750 0)" stroke="#fff" stroke-width=".99792px" fill="none"/>
    <path id="path3288" opacity="1" d="m19.938 30.098h-1.816v-1.114c0-0.487 0.089-0.888 0.267-1.202 0.177-0.313 0.551-0.677 1.122-1.092l0.855-0.644c0.362-0.256 0.621-0.497 0.78-0.724 0.165-0.227 0.247-0.459 0.247-0.695 0-0.429-0.209-0.777-0.627-1.042-0.412-0.265-0.961-0.398-1.645-0.398-0.501 0-1.037 0.084-1.607 0.253-0.564 0.169-1.154 0.415-1.769 0.738v-1.36c0.596-0.275 1.198-0.48 1.807-0.615 0.615-0.135 1.249-0.203 1.902-0.203 1.166 0 2.101 0.234 2.804 0.702 0.71 0.468 1.065 1.086 1.065 1.853 0 0.366-0.114 0.716-0.342 1.049-0.228 0.328-0.628 0.7-1.198 1.115l-0.837 0.622c-0.298 0.227-0.51 0.405-0.637 0.536-0.12 0.125-0.206 0.248-0.257 0.369-0.038 0.101-0.066 0.224-0.085 0.369-0.019 0.144-0.029 0.342-0.029 0.593v0.89" fill="#729fcf"/>
    <path id="path3290" opacity="1" d="m18.065 31.162h1.93v1.838h-1.93v-1.838" fill="#729fcf"/>
   </g>
  </g>
  <g id="g3273">
   <path id="path3269" opacity=".15" d="m14.438 18a7.2188 4 0 1 1 -14.438 0 7.2188 4 0 1 1 14.438 0z" transform="matrix(2.0307 0 0 2.0614 5 1.5461)" fill="url(#radialGradient3271)"/>
   <path id="path3244" d="m11.837 16.5c-2.9588 0-5.3391 2.174-5.3391 4.877v11.181c0 2.703 2.3803 4.877 5.3391 4.877h5.078l13.543 8.565-2.669-8.862c2.119-0.646 3.711-2.421 3.711-4.58v-11.181c0-2.703-2.445-4.877-5.404-4.877h-14.259z" fill-rule="evenodd" stroke="#888a85" stroke-width="1px" fill="url(#linearGradient3255)"/>
   <path id="path3261" d="m11.938 17.5c-2.4547 0-4.3442 1.764-4.3442 3.875v11.187c0 2.112 1.8895 3.876 4.3442 3.876h5.031c0.188 0.001 0.372 0.055 0.531 0.156l11.219 7.125-1.875-6.313c-0.077-0.257-0.048-0.534 0.081-0.769 0.13-0.235 0.348-0.408 0.606-0.481 1.758-0.538 2.969-1.922 2.969-3.594v-11.187c0-2.103-1.921-3.875-4.375-3.875h-14.187z" transform="matrix(1.0042 0 0 1 -.12750 0)" stroke="#fff" stroke-width=".99792px" fill="none"/>
   <path id="path3265" d="m19.938 30.098h-1.816v-1.114c0-0.487 0.089-0.888 0.267-1.202 0.177-0.313 0.551-0.677 1.122-1.092l0.855-0.644c0.362-0.256 0.621-0.497 0.78-0.724 0.165-0.227 0.247-0.459 0.247-0.695 0-0.429-0.209-0.777-0.627-1.042-0.412-0.265-0.961-0.398-1.645-0.398-0.501 0-1.037 0.084-1.607 0.253-0.564 0.169-1.154 0.415-1.769 0.738v-1.36c0.596-0.275 1.198-0.48 1.807-0.615 0.615-0.135 1.249-0.203 1.902-0.203 1.166 0 2.101 0.234 2.804 0.702 0.71 0.468 1.065 1.086 1.065 1.853 0 0.366-0.114 0.716-0.342 1.049-0.228 0.328-0.628 0.7-1.198 1.115l-0.837 0.622c-0.298 0.227-0.51 0.405-0.637 0.536-0.12 0.125-0.206 0.248-0.257 0.369-0.038 0.101-0.066 0.224-0.085 0.369-0.019 0.144-0.029 0.342-0.029 0.593v0.89" fill="#729fcf"/>
   <path id="path3267" d="m18.065 31.162h1.93v1.838h-1.93v-1.838" fill="#729fcf"/>
  </g>
 </g>
</svg>
